<mxfile host="app.diagrams.net" modified="2022-03-28T00:10:59.124Z" agent="5.0 (Windows NT 10.0; Win64; x64) AppleWebKit/537.36 (KHTML, like Gecko) Chrome/99.0.4844.82 Safari/537.36" etag="3Aku6PUq7MXUawe2suJY" version="17.2.4" type="github">
  <diagram id="RVJd-Dt7SYc0apVT5G_t" name="Page-1">
    <mxGraphModel dx="1417" dy="1264" grid="1" gridSize="10" guides="1" tooltips="1" connect="1" arrows="1" fold="1" page="1" pageScale="1" pageWidth="850" pageHeight="1100" math="0" shadow="0">
      <root>
        <mxCell id="0" />
        <mxCell id="1" parent="0" />
        <mxCell id="qSH3qxP1vZpZxCRUbrcc-42" value="" style="rounded=0;whiteSpace=wrap;html=1;" vertex="1" parent="1">
          <mxGeometry x="100.5" y="230" width="650" height="580" as="geometry" />
        </mxCell>
        <mxCell id="qSH3qxP1vZpZxCRUbrcc-1" value="STM32F429ZI" style="rounded=0;whiteSpace=wrap;html=1;fillColor=#dae8fc;strokeColor=#6c8ebf;" vertex="1" parent="1">
          <mxGeometry x="300" y="480" width="250" height="170" as="geometry" />
        </mxCell>
        <mxCell id="qSH3qxP1vZpZxCRUbrcc-15" style="edgeStyle=orthogonalEdgeStyle;rounded=0;orthogonalLoop=1;jettySize=auto;html=1;exitX=0.5;exitY=1;exitDx=0;exitDy=0;entryX=0.5;entryY=0;entryDx=0;entryDy=0;startArrow=classic;startFill=1;" edge="1" parent="1" source="qSH3qxP1vZpZxCRUbrcc-2" target="qSH3qxP1vZpZxCRUbrcc-14">
          <mxGeometry relative="1" as="geometry" />
        </mxCell>
        <mxCell id="qSH3qxP1vZpZxCRUbrcc-2" value="ST Link Debug" style="rounded=0;whiteSpace=wrap;html=1;fillColor=#ffe6cc;strokeColor=#d79b00;" vertex="1" parent="1">
          <mxGeometry x="395" y="350" width="60" height="50" as="geometry" />
        </mxCell>
        <mxCell id="qSH3qxP1vZpZxCRUbrcc-4" value="LCD" style="rounded=0;whiteSpace=wrap;html=1;fillColor=#ffe6cc;strokeColor=#d79b00;" vertex="1" parent="1">
          <mxGeometry x="425" y="690" width="60" height="50" as="geometry" />
        </mxCell>
        <mxCell id="qSH3qxP1vZpZxCRUbrcc-10" style="edgeStyle=orthogonalEdgeStyle;rounded=0;orthogonalLoop=1;jettySize=auto;html=1;exitX=0.5;exitY=1;exitDx=0;exitDy=0;entryX=0.5;entryY=0;entryDx=0;entryDy=0;startArrow=classic;startFill=1;" edge="1" parent="1" source="qSH3qxP1vZpZxCRUbrcc-5" target="qSH3qxP1vZpZxCRUbrcc-2">
          <mxGeometry relative="1" as="geometry" />
        </mxCell>
        <mxCell id="qSH3qxP1vZpZxCRUbrcc-5" value="USB" style="rounded=0;whiteSpace=wrap;html=1;fillColor=#ffe6cc;strokeColor=#d79b00;" vertex="1" parent="1">
          <mxGeometry x="395.5" y="260" width="60" height="50" as="geometry" />
        </mxCell>
        <mxCell id="qSH3qxP1vZpZxCRUbrcc-6" value="SPI?" style="rounded=0;whiteSpace=wrap;html=1;fillColor=#f8cecc;strokeColor=#b85450;" vertex="1" parent="1">
          <mxGeometry x="360" y="630" width="30" height="20" as="geometry" />
        </mxCell>
        <mxCell id="qSH3qxP1vZpZxCRUbrcc-7" value="I2C" style="rounded=0;whiteSpace=wrap;html=1;fillColor=#f8cecc;strokeColor=#b85450;" vertex="1" parent="1">
          <mxGeometry x="300" y="630" width="30" height="20" as="geometry" />
        </mxCell>
        <mxCell id="qSH3qxP1vZpZxCRUbrcc-17" style="edgeStyle=orthogonalEdgeStyle;rounded=0;orthogonalLoop=1;jettySize=auto;html=1;exitX=1;exitY=0.25;exitDx=0;exitDy=0;entryX=0;entryY=0.5;entryDx=0;entryDy=0;" edge="1" parent="1" source="qSH3qxP1vZpZxCRUbrcc-9" target="qSH3qxP1vZpZxCRUbrcc-18">
          <mxGeometry relative="1" as="geometry">
            <mxPoint x="600" y="520" as="targetPoint" />
            <Array as="points">
              <mxPoint x="550" y="550" />
              <mxPoint x="580" y="550" />
              <mxPoint x="580" y="505" />
            </Array>
          </mxGeometry>
        </mxCell>
        <mxCell id="qSH3qxP1vZpZxCRUbrcc-9" value="GPIO" style="rounded=0;whiteSpace=wrap;html=1;fillColor=#f8cecc;strokeColor=#b85450;" vertex="1" parent="1">
          <mxGeometry x="500" y="540" width="50" height="110" as="geometry" />
        </mxCell>
        <mxCell id="qSH3qxP1vZpZxCRUbrcc-14" value="Flash?" style="rounded=0;whiteSpace=wrap;html=1;fillColor=#f8cecc;strokeColor=#b85450;" vertex="1" parent="1">
          <mxGeometry x="393" y="480" width="64.5" height="30" as="geometry" />
        </mxCell>
        <mxCell id="qSH3qxP1vZpZxCRUbrcc-18" value="LEDs" style="rounded=0;whiteSpace=wrap;html=1;fillColor=#ffe6cc;strokeColor=#d79b00;" vertex="1" parent="1">
          <mxGeometry x="610" y="480" width="60" height="50" as="geometry" />
        </mxCell>
        <mxCell id="qSH3qxP1vZpZxCRUbrcc-41" style="edgeStyle=orthogonalEdgeStyle;rounded=0;orthogonalLoop=1;jettySize=auto;html=1;exitX=1;exitY=0.5;exitDx=0;exitDy=0;entryX=0;entryY=0.5;entryDx=0;entryDy=0;startArrow=none;startFill=0;" edge="1" parent="1" source="qSH3qxP1vZpZxCRUbrcc-19" target="qSH3qxP1vZpZxCRUbrcc-29">
          <mxGeometry relative="1" as="geometry" />
        </mxCell>
        <mxCell id="qSH3qxP1vZpZxCRUbrcc-19" value="Buttons" style="rounded=0;whiteSpace=wrap;html=1;fillColor=#ffe6cc;strokeColor=#d79b00;" vertex="1" parent="1">
          <mxGeometry x="180" y="480" width="60" height="50" as="geometry" />
        </mxCell>
        <mxCell id="qSH3qxP1vZpZxCRUbrcc-25" style="edgeStyle=orthogonalEdgeStyle;rounded=0;orthogonalLoop=1;jettySize=auto;html=1;exitX=0.5;exitY=0;exitDx=0;exitDy=0;entryX=0.5;entryY=1;entryDx=0;entryDy=0;startArrow=classic;startFill=1;" edge="1" parent="1" source="qSH3qxP1vZpZxCRUbrcc-21" target="qSH3qxP1vZpZxCRUbrcc-6">
          <mxGeometry relative="1" as="geometry" />
        </mxCell>
        <mxCell id="qSH3qxP1vZpZxCRUbrcc-21" value="SDRAM" style="rounded=0;whiteSpace=wrap;html=1;fillColor=#ffe6cc;strokeColor=#d79b00;" vertex="1" parent="1">
          <mxGeometry x="345" y="690" width="60" height="50" as="geometry" />
        </mxCell>
        <mxCell id="qSH3qxP1vZpZxCRUbrcc-23" style="edgeStyle=orthogonalEdgeStyle;rounded=0;orthogonalLoop=1;jettySize=auto;html=1;exitX=0.5;exitY=1;exitDx=0;exitDy=0;entryX=0.5;entryY=0;entryDx=0;entryDy=0;" edge="1" parent="1" source="qSH3qxP1vZpZxCRUbrcc-22" target="qSH3qxP1vZpZxCRUbrcc-4">
          <mxGeometry relative="1" as="geometry" />
        </mxCell>
        <mxCell id="qSH3qxP1vZpZxCRUbrcc-22" value="I/O?" style="rounded=0;whiteSpace=wrap;html=1;fillColor=#f8cecc;strokeColor=#b85450;" vertex="1" parent="1">
          <mxGeometry x="440" y="630" width="30" height="20" as="geometry" />
        </mxCell>
        <mxCell id="qSH3qxP1vZpZxCRUbrcc-27" style="edgeStyle=orthogonalEdgeStyle;rounded=0;orthogonalLoop=1;jettySize=auto;html=1;exitX=1;exitY=0.5;exitDx=0;exitDy=0;entryX=0;entryY=0.5;entryDx=0;entryDy=0;startArrow=classic;startFill=1;" edge="1" parent="1" source="qSH3qxP1vZpZxCRUbrcc-26" target="qSH3qxP1vZpZxCRUbrcc-7">
          <mxGeometry relative="1" as="geometry" />
        </mxCell>
        <mxCell id="qSH3qxP1vZpZxCRUbrcc-26" value="I3G4250D Gyroscope" style="rounded=0;whiteSpace=wrap;html=1;fillColor=#ffe6cc;strokeColor=#d79b00;" vertex="1" parent="1">
          <mxGeometry x="160" y="690" width="60" height="50" as="geometry" />
        </mxCell>
        <mxCell id="qSH3qxP1vZpZxCRUbrcc-29" value="GPIO/ISR" style="rounded=0;whiteSpace=wrap;html=1;fillColor=#fff2cc;strokeColor=#d6b656;" vertex="1" parent="1">
          <mxGeometry x="300" y="500" width="70" height="40" as="geometry" />
        </mxCell>
        <mxCell id="qSH3qxP1vZpZxCRUbrcc-30" value="Connector/ IO pins" style="rounded=0;whiteSpace=wrap;html=1;fillColor=#ffe6cc;strokeColor=#d79b00;" vertex="1" parent="1">
          <mxGeometry x="640" y="560" width="60" height="100" as="geometry" />
        </mxCell>
        <mxCell id="qSH3qxP1vZpZxCRUbrcc-34" style="edgeStyle=orthogonalEdgeStyle;rounded=0;orthogonalLoop=1;jettySize=auto;html=1;startArrow=classic;startFill=1;entryX=1;entryY=0.75;entryDx=0;entryDy=0;" edge="1" parent="1">
          <mxGeometry relative="1" as="geometry">
            <mxPoint x="550" y="610" as="targetPoint" />
            <mxPoint x="640" y="610" as="sourcePoint" />
          </mxGeometry>
        </mxCell>
        <mxCell id="qSH3qxP1vZpZxCRUbrcc-37" value="" style="endArrow=none;html=1;rounded=0;" edge="1" parent="1">
          <mxGeometry width="50" height="50" relative="1" as="geometry">
            <mxPoint x="580" y="640" as="sourcePoint" />
            <mxPoint x="620" y="600" as="targetPoint" />
            <Array as="points">
              <mxPoint x="600" y="620" />
            </Array>
          </mxGeometry>
        </mxCell>
        <mxCell id="qSH3qxP1vZpZxCRUbrcc-39" style="edgeStyle=orthogonalEdgeStyle;rounded=0;orthogonalLoop=1;jettySize=auto;html=1;startArrow=classic;startFill=1;entryX=1;entryY=0.75;entryDx=0;entryDy=0;" edge="1" parent="1">
          <mxGeometry relative="1" as="geometry">
            <mxPoint x="550" y="620" as="targetPoint" />
            <mxPoint x="640" y="620" as="sourcePoint" />
          </mxGeometry>
        </mxCell>
        <mxCell id="qSH3qxP1vZpZxCRUbrcc-40" style="edgeStyle=orthogonalEdgeStyle;rounded=0;orthogonalLoop=1;jettySize=auto;html=1;startArrow=classic;startFill=1;entryX=1;entryY=0.75;entryDx=0;entryDy=0;" edge="1" parent="1">
          <mxGeometry relative="1" as="geometry">
            <mxPoint x="550" y="630" as="targetPoint" />
            <mxPoint x="640" y="630" as="sourcePoint" />
          </mxGeometry>
        </mxCell>
      </root>
    </mxGraphModel>
  </diagram>
</mxfile>
